HIERARCHY
ROOT Hips
{
	OFFSET 0.000000 0.000000 0.000000
	CHANNELS 6 Xposition Yposition Zposition Zrotation Yrotation Xrotation 
	JOINT LHipJoint
	{
		OFFSET 0.000000 0.000000 0.000000
		CHANNELS 3 Zrotation Yrotation Xrotation
		JOINT LeftUpLeg
		{
			OFFSET 1.363060 -1.794630 0.839290
			CHANNELS 3 Zrotation Yrotation Xrotation
			JOINT LeftLeg
			{
				OFFSET 2.448110 -6.726130 0.000000
				CHANNELS 3 Zrotation Yrotation Xrotation
				JOINT LeftFoot
				{
					OFFSET 2.562200 -7.039590 0.000000
					CHANNELS 3 Zrotation Yrotation Xrotation
					JOINT LeftToeBase
					{
						OFFSET 0.157640 -0.433110 2.322550
						CHANNELS 3 Zrotation Yrotation Xrotation
						End Site
						{
							OFFSET 0.000000 0.000000 0.000000
						}
					}
				}
			}
		}
	}
	JOINT RHipJoint
	{
		OFFSET 0.000000 0.000000 0.000000
		CHANNELS 3 Zrotation Yrotation Xrotation
		JOINT RightUpLeg
		{
			OFFSET -1.305520 -1.794630 0.839290
			CHANNELS 3 Zrotation Yrotation Xrotation
			JOINT RightLeg
			{
				OFFSET -2.542530 -6.985550 0.000000
				CHANNELS 3 Zrotation Yrotation Xrotation
				JOINT RightFoot
				{
					OFFSET -2.568260 -7.056230 0.000000
					CHANNELS 3 Zrotation Yrotation Xrotation
					JOINT RightToeBase
					{
						OFFSET -0.164730 -0.452590 2.363150
						CHANNELS 3 Zrotation Yrotation Xrotation
						End Site
						{
							OFFSET 0.000000 0.000000 0.000000
						}
					}
				}
			}
		}
	}
	JOINT LowerBack
	{
		OFFSET 0.000000 0.000000 0.000000
		CHANNELS 3 Zrotation Yrotation Xrotation
		JOINT Spine
		{
			OFFSET 0.028270 2.035590 -0.193380
			CHANNELS 3 Zrotation Yrotation Xrotation
			JOINT Spine1
			{
				OFFSET 0.056720 2.048850 -0.042750
				CHANNELS 3 Zrotation Yrotation Xrotation
				JOINT Neck
				{
					OFFSET 0.000000 0.000000 0.000000
					CHANNELS 3 Zrotation Yrotation Xrotation
					JOINT Neck1
					{
						OFFSET -0.054170 1.746240 0.172020
						CHANNELS 3 Zrotation Yrotation Xrotation
						JOINT Head
						{
							OFFSET 0.104070 1.761360 -0.123970
							CHANNELS 3 Zrotation Yrotation Xrotation
							End Site
							{
								OFFSET 0.000000 0.000000 0.000000
							}
						}
					}
				}
				JOINT LeftShoulder
				{
					OFFSET 0.000000 0.000000 0.000000
					CHANNELS 3 Zrotation Yrotation Xrotation
					JOINT LeftArm
					{
						OFFSET 3.362410 1.200890 -0.311210
						CHANNELS 3 Zrotation Yrotation Xrotation
						JOINT LeftForeArm
						{
							OFFSET 4.983000 -0.000000 -0.000000
							CHANNELS 3 Zrotation Yrotation Xrotation
							JOINT LeftHand
							{
								OFFSET 3.483560 -0.000000 -0.000000
								CHANNELS 3 Zrotation Yrotation Xrotation
								JOINT LeftFingerBase
								{
									OFFSET 0.000000 0.000000 0.000000
									CHANNELS 3 Zrotation Yrotation Xrotation
									JOINT LeftHandIndex1
									{
										OFFSET 0.715260 -0.000000 -0.000000
										CHANNELS 3 Zrotation Yrotation Xrotation
										End Site
										{
											OFFSET 0.000000 0.000000 0.000000
										}
									}
								}
								JOINT LThumb
								{
									OFFSET 0.000000 0.000000 0.000000
									CHANNELS 3 Zrotation Yrotation Xrotation
									End Site
									{
										OFFSET 0.000000 0.000000 0.000000
									}
								}
							}
						}
					}
				}
				JOINT RightShoulder
				{
					OFFSET 0.000000 0.000000 0.000000
					CHANNELS 3 Zrotation Yrotation Xrotation
					JOINT RightArm
					{
						OFFSET -3.136600 1.374050 -0.404650
						CHANNELS 3 Zrotation Yrotation Xrotation
						JOINT RightForeArm
						{
							OFFSET -5.241900 -0.000000 -0.000000
							CHANNELS 3 Zrotation Yrotation Xrotation
							JOINT RightHand
							{
								OFFSET -3.444170 -0.000000 -0.000000
								CHANNELS 3 Zrotation Yrotation Xrotation
								JOINT RightFingerBase
								{
									OFFSET 0.000000 0.000000 0.000000
									CHANNELS 3 Zrotation Yrotation Xrotation
									JOINT RightHandIndex1
									{
										OFFSET -0.622530 -0.000000 -0.000000
										CHANNELS 3 Zrotation Yrotation Xrotation
										End Site
										{
											OFFSET 0.000000 0.000000 0.000000
										}
									}
								}
								JOINT RThumb
								{
									OFFSET 0.000000 0.000000 0.000000
									CHANNELS 3 Zrotation Yrotation Xrotation
									End Site
									{
										OFFSET 0.000000 0.000000 0.000000
									}
								}
							}
						}
					}
				}
			}
		}
	}
}
MOTION
Frames: 12
Frame Time: 0.008333
1.599425 17.970831 -8.553709 -1.508790 -5.335672 9.643688 -1.408176 0.819189 1.134129 -14.983650 -1.249996 -11.812890 -0.037974 6.347641 19.404161 0.204606 0.355724 -8.127889 0.137600 -2.390500 -6.586200 3.266745 0.726378 0.402361 14.439072 2.042363 -15.530482 -1.769251 -8.425800 22.938608 0.364593 -6.405091 -10.107426 -0.001900 -0.283100 0.777800 -7.531504 -1.783741 -7.772599 5.617646 -1.519611 0.917785 6.405870 -0.732633 1.741255 -7.626886 -11.354254 -14.223210 4.061839 -14.021634 15.646906 -0.882400 -6.534600 9.551400 0.535513 5.373110 -1.120360 -94.408971 -2.491062 0.952543 11.328952 -19.854852 -1.050179 1.249754 1.257047 3.748419 10.348576 35.198475 5.157200 -7.125000 0.000000 0.000000 -28.292600 62.068700 -12.272900 -0.201122 -4.290750 -1.260671 85.398413 0.239596 24.795325 -14.047596 24.160455 -2.372114 -0.194255 0.383633 -9.186308 -24.414609 14.924309 -6.440900 7.125000 0.000000 0.000000 2.182500 -14.159700 1.583400 
1.602195 17.971127 -8.556973 -1.565163 -5.365728 9.664760 -1.400562 0.821136 1.131350 -14.942812 -1.251052 -11.848836 -0.035999 6.357127 19.426190 0.193035 0.434204 -8.101900 0.153500 -2.524600 -6.958000 3.275704 0.726063 0.398446 14.477719 2.261347 -15.442718 -1.762192 -8.407465 22.885881 0.386399 -6.581051 -10.127178 -0.001600 -0.256200 0.703900 -7.522305 -1.797613 -7.708730 5.717738 -1.534500 0.894360 6.400571 -0.739472 1.705595 -7.712798 -11.324421 -14.245397 4.068185 -13.955996 15.710100 -0.863400 -6.506900 9.576300 0.530228 5.380054 -1.117790 -94.479286 -2.495843 0.771438 11.309141 -19.829227 -1.046519 1.249022 1.253396 3.860187 10.264216 35.148770 5.104400 -7.125000 0.000000 0.000000 -28.326300 62.005300 -12.246400 -0.210068 -4.289033 -1.258986 85.345375 0.250015 24.777815 -14.057215 24.177771 -2.375256 -0.191256 0.384654 -8.935659 -24.425571 14.898102 -6.433200 7.125000 0.000000 0.000000 2.172400 -14.186900 1.574800 
1.606547 17.972413 -8.558457 -1.611641 -5.461271 9.681904 -1.405352 0.820038 1.134274 -14.920567 -1.170214 -11.903839 -0.032544 6.365294 19.447333 0.190661 0.459798 -8.115786 0.168500 -2.644500 -7.290500 3.270813 0.721638 0.398934 14.504705 2.348635 -15.428805 -1.760793 -8.396894 22.860623 0.394061 -6.608234 -10.014933 -0.000200 0.080300 -0.220600 -7.426900 -1.741127 -7.719405 5.642037 -1.474297 0.930332 6.345789 -0.708549 1.703313 -7.646718 -11.309908 -14.248109 4.087202 -13.952424 15.722974 -0.867100 -6.497700 9.576200 0.536654 5.382537 -1.121221 -94.432309 -2.554929 0.794078 11.288090 -19.792851 -1.036047 1.251003 1.258525 3.946651 10.211370 35.279178 5.090700 -7.125000 0.000000 0.000000 -28.506700 62.098600 -12.394400 -0.206038 -4.290732 -1.258960 85.436669 0.312865 24.604762 -13.975441 24.054430 -2.341704 -0.189962 0.392447 -8.955232 -24.420384 15.121972 -6.525400 7.125000 0.000000 0.000000 2.188900 -13.954000 1.597700 
1.611393 17.971919 -8.559347 -1.598269 -5.545510 9.628341 -1.417614 0.825469 1.145554 -14.953397 -1.105693 -11.895722 -0.026565 6.378549 19.485534 0.198278 0.431127 -8.180245 0.180600 -2.737500 -7.548700 3.257458 0.722719 0.402537 14.480616 2.284899 -15.387767 -1.755925 -8.381591 22.815933 0.396809 -6.585771 -9.856218 -0.006700 0.527400 -1.449300 -7.355694 -1.699731 -7.679393 5.501474 -1.438138 1.025015 6.287147 -0.698003 1.648792 -8.045858 -11.466062 -14.651418 4.778280 -14.052580 16.407490 -0.661300 -6.452500 9.897000 0.561850 5.466527 -1.123169 -94.355494 -2.487997 1.014052 11.313982 -19.838160 -1.047536 1.249425 1.259828 3.830873 10.296954 35.225385 5.132000 -7.125000 0.000000 0.000000 -28.365900 62.075100 -12.311900 -0.185330 -4.215160 -1.232390 85.523418 0.357861 24.496601 -13.913925 23.960902 -2.316455 -0.193801 0.399083 -9.064698 -24.532084 15.218214 -6.596600 7.125000 0.000000 0.000000 2.120800 -13.844800 1.552800 
1.614954 17.972809 -8.562413 -1.594890 -5.531981 9.605363 -1.420976 0.823183 1.145939 -14.958470 -1.138741 -11.898215 -0.020652 6.393961 19.530224 0.201541 0.418090 -8.207391 0.191500 -2.818500 -7.773700 3.253572 0.721612 0.405671 14.472653 2.247682 -15.361744 -1.747951 -8.363756 22.758446 0.397772 -6.579167 -9.802547 -0.006800 0.533200 -1.465100 -7.329541 -1.691217 -7.596963 5.454355 -1.441719 1.058572 6.271975 -0.697088 1.596512 -8.045980 -11.438570 -14.740651 4.774681 -14.003562 16.485866 -0.660500 -6.426500 9.929600 0.565243 5.472586 -1.121534 -94.359096 -2.431997 1.058008 11.340902 -19.890064 -1.060794 1.246736 1.256211 3.819517 10.273754 35.112629 5.105700 -7.125000 0.000000 0.000000 -28.276000 61.975000 -12.202400 -0.180542 -4.215875 -1.232075 85.531015 0.356783 24.487207 -13.915033 23.961239 -2.316007 -0.199744 0.399479 -9.045740 -24.701128 15.113924 -6.600100 7.125000 0.000000 0.000000 2.002900 -13.938700 1.462400 
1.617625 17.975084 -8.565875 -1.707417 -5.475065 9.644548 -1.411685 0.814730 1.133915 -14.836671 -1.136968 -11.969140 -0.013771 6.409691 19.572320 0.209147 0.367585 -8.212157 0.171700 -2.669500 -7.359800 3.259790 0.719239 0.401994 14.593614 2.251994 -15.371251 -1.740473 -8.345620 22.700696 0.401498 -6.608824 -9.799621 -0.004600 0.438000 -1.203600 -7.241148 -1.674625 -7.473906 5.517830 -1.431630 0.955965 6.239222 -0.680861 1.539597 -7.582472 -11.264363 -14.411182 4.027714 -13.880961 15.935115 -0.894300 -6.456300 9.645500 0.544914 5.393527 -1.115069 -94.373856 -2.364554 1.170503 11.374147 -19.944480 -1.068115 1.247175 1.260021 3.688984 10.335294 35.194228 5.149600 -7.125000 0.000000 0.000000 -28.298600 62.060400 -12.270200 -0.194687 -4.294716 -1.253628 85.520915 0.262519 24.527809 -13.944493 24.000224 -2.326647 -0.206274 0.396321 -9.055258 -24.852627 14.976610 -6.584600 7.125000 0.000000 0.000000 1.895300 -14.066600 1.378600 
1.620691 17.975479 -8.566864 -1.785538 -5.443000 9.647254 -1.406170 0.815385 1.132336 -14.761761 -1.128801 -11.991826 -0.008831 6.421465 19.604335 0.213230 0.352111 -8.241693 0.157600 -2.557800 -7.050000 3.263617 0.720700 0.402047 14.677184 2.216098 -15.355747 -1.733784 -8.328841 22.648532 0.403245 -6.618028 -9.784061 -0.003800 0.397600 -1.092400 -7.192545 -1.677081 -7.397041 5.571487 -1.440261 0.944272 6.216004 -0.682925 1.491152 -7.508744 -11.228238 -14.506341 3.893050 -13.830220 16.050978 -0.941400 -6.437100 9.679700 0.538799 5.391236 -1.110913 -94.362128 -2.248876 1.463543 11.430420 -20.033917 -1.083394 1.246555 1.266262 3.365203 10.539533 35.263461 5.271900 -7.125000 0.000000 0.000000 -28.167900 62.173200 -12.283700 -0.202122 -4.300275 -1.251850 85.503817 0.250905 24.548273 -13.946343 24.004341 -2.328806 -0.208577 0.394202 -9.100406 -24.862519 14.872497 -6.541900 7.125000 0.000000 0.000000 1.882900 -14.176600 1.365200 
1.624747 17.975479 -8.565183 -1.742023 -5.446022 9.635254 -1.409453 0.812629 1.130254 -14.826177 -1.147949 -11.975966 -0.006806 6.428309 19.625275 0.210518 0.377559 -8.257692 0.157800 -2.559200 -7.053800 3.259408 0.722128 0.403033 14.624166 2.129354 -15.350183 -1.727969 -8.318421 22.610794 0.397718 -6.562691 -9.735786 -0.005200 0.466600 -1.282200 -7.240439 -1.684560 -7.365586 5.534629 -1.451217 0.935720 6.243432 -0.688073 1.474662 -7.500831 -11.206004 -14.491734 3.862433 -13.800398 16.096339 -0.946400 -6.425000 9.688200 0.540074 5.389633 -1.108732 -94.354747 -2.144570 1.601646 11.470558 -20.096426 -1.096680 1.245699 1.266424 3.211519 10.655717 35.236964 5.333700 -7.125000 0.000000 0.000000 -28.027200 62.182800 -12.223400 -0.198726 -4.300223 -1.252003 85.490743 0.249663 24.571742 -13.938826 23.993612 -2.326691 -0.208012 0.393880 -9.142890 -24.820802 14.879828 -6.533100 7.125000 0.000000 0.000000 1.911200 -14.173300 1.385800 
1.628110 17.976666 -8.563897 -1.729089 -5.466028 9.677213 -1.414188 0.808972 1.123012 -14.844195 -1.127722 -12.022156 -0.007844 6.428015 19.616528 0.214849 0.323562 -8.204860 0.139900 -2.410300 -6.641100 3.253361 0.726327 0.394531 14.602840 2.121532 -15.385529 -1.728488 -8.315976 22.608882 0.390010 -6.500402 -9.736272 -0.003400 0.374300 -1.028400 -7.224204 -1.692847 -7.344337 5.471194 -1.459635 0.827529 6.226447 -0.697417 1.455764 -7.612095 -11.222989 -14.454659 4.049582 -13.806154 16.301727 -0.880700 -6.404400 9.758600 0.547590 5.406035 -1.102980 -94.323839 -2.066436 1.710040 11.487848 -20.118475 -1.101790 1.244570 1.268374 3.151115 10.684390 35.247047 5.351200 -7.125000 0.000000 0.000000 -28.007600 62.198500 -12.224500 -0.186323 -4.274490 -1.238395 85.512339 0.147303 24.642420 -13.966255 24.029337 -2.335767 -0.208775 0.393596 -9.236563 -24.852012 14.928429 -6.563700 7.125000 0.000000 0.000000 1.893500 -14.116700 1.375300 
1.629692 17.977260 -8.565776 -1.723503 -5.461064 9.731805 -1.415649 0.810367 1.126685 -14.842839 -1.130993 -12.087342 -0.011659 6.420556 19.588848 0.219557 0.261981 -8.143765 0.126200 -2.289600 -6.306700 3.255253 0.727398 0.397966 14.588529 2.135192 -15.465512 -1.732302 -8.316755 22.626800 0.386919 -6.481092 -9.769313 -0.001500 0.248100 -0.681800 -7.263419 -1.720611 -7.448467 5.476485 -1.487468 0.907704 6.240904 -0.716954 1.515822 -7.840567 -11.266927 -14.648694 4.445634 -13.806801 16.604495 -0.750800 -6.357500 9.914300 0.554108 5.447680 -1.107507 -94.356443 -2.167377 1.746837 11.474582 -20.099964 -1.100563 1.243893 1.264980 3.214943 10.639539 35.177314 5.317400 -7.125000 0.000000 0.000000 -27.982300 62.128200 -12.166000 -0.180476 -4.231339 -1.228685 85.506187 0.177684 24.725373 -14.001157 24.082170 -2.347788 -0.209892 0.393824 -9.387984 -24.900354 15.003852 -6.611000 7.125000 0.000000 0.000000 1.866100 -14.029900 1.358800 
1.631868 17.976666 -8.567557 -1.674719 -5.470998 9.758506 -1.417740 0.811369 1.135973 -14.905900 -1.160085 -12.118485 -0.014329 6.417651 19.581469 0.213835 0.305987 -8.152126 0.133900 -2.358900 -6.498600 3.258082 0.723735 0.411077 14.523789 2.113689 -15.540764 -1.733670 -8.314756 22.631390 0.390744 -6.497772 -9.727058 -0.002900 0.347600 -0.955200 -7.362979 -1.747876 -7.600141 5.486916 -1.517088 1.106296 6.295021 -0.732526 1.616359 -7.966833 -11.256741 -14.809835 4.698657 -13.757928 16.630788 -0.662100 -6.311900 9.970600 0.556571 5.470024 -1.119312 -94.434974 -2.344458 1.626625 11.452848 -20.073538 -1.096011 1.245515 1.259242 3.345490 10.606885 35.119207 5.291900 -7.125000 0.000000 0.000000 -27.958300 62.071800 -12.117300 -0.180582 -4.214284 -1.235541 85.487643 0.336290 24.690092 -13.988314 24.069366 -2.342779 -0.206816 0.395970 -9.220090 -24.884897 15.033674 -6.619400 7.125000 0.000000 0.000000 1.877200 -14.000800 1.368000 
1.635627 17.977359 -8.567854 -1.700242 -5.534489 9.778685 -1.414677 0.812041 1.134828 -14.911452 -1.140905 -12.134777 -0.016002 6.417241 19.578346 0.207201 0.373761 -8.190812 0.136500 -2.381300 -6.560800 3.261166 0.724485 0.409370 14.526267 2.139091 -15.573299 -1.736599 -8.316833 22.642484 0.389919 -6.474336 -9.667941 -0.005200 0.466900 -1.282900 -7.379605 -1.744716 -7.575086 5.537874 -1.508758 1.096106 6.303608 -0.728526 1.602057 -8.032819 -11.248315 -14.788843 4.727169 -13.733416 16.624318 -0.641000 -6.302900 9.969900 0.553590 5.473221 -1.119150 -94.451355 -2.332218 1.698844 11.466961 -20.093907 -1.096674 1.243221 1.267291 3.220924 10.589876 35.248171 5.299000 -7.125000 0.000000 0.000000 -28.102400 62.175000 -12.253800 -0.185784 -4.213659 -1.235343 85.462398 0.368461 24.618174 -13.960959 24.033388 -2.336044 -0.201550 0.393628 -8.957356 -24.724125 14.882751 -6.507700 7.125000 0.000000 0.000000 1.973700 -14.179900 1.431000 
